<svg t="1667199486628" class="icon" viewBox="0 0 1024 1024" version="1.1" xmlns="http://www.w3.org/2000/svg" p-id="2792" width="200" height="200"><path d="M512 342.16467001A169.83532999 169.83532999 0 1 0 681.83532999 512 170.02951111 170.02951111 0 0 0 512 342.16467001z m0 291.14974777A121.31441778 121.31441778 0 1 1 633.31441778 512 121.46005333 121.46005333 0 0 1 512 633.31441778z" fill="#ffffff" p-id="2793"></path><path d="M905.77427001 560.47236779a61.28829667 61.28829667 0 0 1 0-96.94473558 109.73639111 109.73639111 0 0 0-81.04618667-195.70991331 61.23975111 61.23975111 0 0 1-68.54580224-68.54580224 109.73639111 109.73639111 0 0 0-195.70991331-81.07045888 63.15728555 63.15728555 0 0 1-96.94473558 0 109.73639111 109.73639111 0 0 0-195.70991331 81.07045888 61.23975111 61.23975111 0 0 1-68.54580224 68.54580224 109.73639111 109.73639111 0 0 0-81.07045888 195.70991331 61.28829667 61.28829667 0 0 1 0 96.94473558 109.73639111 109.73639111 0 0 0 81.07045888 195.70991331 61.23975111 61.23975111 0 0 1 68.54580224 68.54580224 107.33340445 107.33340445 0 0 0 66.87099221 115.36763221A113.32873443 113.32873443 0 0 0 378.01528889 948.90666667a107.35767666 107.35767666 0 0 0 85.51234332-43.13239666 63.15728555 63.15728555 0 0 1 96.94473558 0 109.73639111 109.73639111 0 0 0 195.70991331-81.07046002 61.23975111 61.23975111 0 0 1 68.54580224-68.52152889 109.73639111 109.73639111 0 0 0 81.07045888-195.70991331z m-10.53430556 110.27038776a59.51639666 59.51639666 0 0 1-64.34664335 37.28270223 109.80920889 109.80920889 0 0 0-122.84359111 122.86786332A61.23975111 61.23975111 0 0 1 598.87160889 876.08888889a113.1102811 113.1102811 0 0 0-173.71894556 0 61.23975111 61.23975111 0 0 1-109.17812111-45.21984 109.8334811 109.8334811 0 0 0-108.66839665-123.76595001 114.78508999 114.78508999 0 0 0-14.19946667 0.89808669A61.23975111 61.23975111 0 0 1 147.91111111 598.84733667a109.78493667 109.78493667 0 0 0 0-173.71894556 61.23975111 61.23975111 0 0 1 45.21984-109.1781211 109.80920889 109.80920889 0 0 0 122.84359111-122.8193189 61.23975111 61.23975111 0 0 1 109.20239445-45.24411221 113.1102811 113.1102811 0 0 0 173.71894443 0 61.23975111 61.23975111 0 0 1 109.17812224 45.21984 109.80920889 109.80920889 0 0 0 122.81931776 122.84359111 61.23975111 61.23975111 0 0 1 45.24411335 109.1781211 109.78493667 109.78493667 0 0 0 0 173.71894556 59.22512555 59.22512555 0 0 1 19.12680221 71.89541888z" fill="#ffffff" p-id="2794"></path></svg>